<?xml version="1.0" encoding="utf-8"?>
<!-- Svg Vector Icons : http://www.onlinewebfonts.com/icon -->
<!DOCTYPE svg PUBLIC "-//W3C//DTD SVG 1.1//EN" "http://www.w3.org/Graphics/SVG/1.1/DTD/svg11.dtd">
<svg version="1.1" xmlns="http://www.w3.org/2000/svg" xmlns:xlink="http://www.w3.org/1999/xlink" x="0px" y="0px" viewBox="0 0 1000 1000" enable-background="new 0 0 1000 1000" xml:space="preserve">
<metadata> Svg Vector Icons : http://www.onlinewebfonts.com/icon </metadata>
<g><path d="M380.5,100.5l-350,350c-27.4,27.4-27.4,71.7,0,99l350,350c27.4,27.3,71.7,27.3,99,0c27.3-27.3,27.4-71.7,0-99L249,570h671c38.6,0,70-31.4,70-70c0-38.6-31.4-70-70-70H249l230.5-230.5C493.1,185.9,500,168,500,150s-6.9-35.8-20.5-49.5C452.1,73.2,407.8,73.2,380.5,100.5L380.5,100.5z"/></g>
</svg>